<?xml version="1.0"?>
<svg xmlns="http://www.w3.org/2000/svg" width="24" height="24" viewBox="0 0 24 24" fill="none">
    <g id="letter-h">
        <g id="outline" filter="url(#filter0_d_1701_1162)">
            <path
                d="M12 9C11.4477 9 11 8.55228 11 8V4C11 3.44772 10.5523 3 10 3H5C4.44772 3 4 3.44772 4 4V20C4 20.5523 4.44772 21 5 21H10C10.5523 21 11 20.5523 11 20V17C11 16.4477 11.4477 16 12 16C12.5523 16 13 16.4477 13 17V20C13 20.5523 13.4477 21 14 21H19C19.5523 21 20 20.5523 20 20V4C20 3.44772 19.5523 3 19 3H14C13.4477 3 13 3.44772 13 4V8C13 8.55228 12.5523 9 12 9Z"
                fill="white" />
        </g>
        <path id="icon" d="M6 5H9V11H15V5H18V19H15V14H9V19H6V5Z" fill="#1452CC" />
    </g>
    <defs>
        <filter id="filter0_d_1701_1162" x="2" y="1.5" width="20" height="22"
            filterUnits="userSpaceOnUse" color-interpolation-filters="sRGB">
            <feFlood flood-opacity="0" result="BackgroundImageFix" />
            <feColorMatrix in="SourceAlpha" type="matrix"
                values="0 0 0 0 0 0 0 0 0 0 0 0 0 0 0 0 0 0 127 0" result="hardAlpha" />
            <feOffset dy="0.5" />
            <feGaussianBlur stdDeviation="1" />
            <feComposite in2="hardAlpha" operator="out" />
            <feColorMatrix type="matrix" values="0 0 0 0 0 0 0 0 0 0 0 0 0 0 0 0 0 0 0.25 0" />
            <feBlend mode="normal" in2="BackgroundImageFix" result="effect1_dropShadow_1701_1162" />
            <feBlend mode="normal" in="SourceGraphic" in2="effect1_dropShadow_1701_1162"
                result="shape" />
        </filter>
    </defs>
</svg>